<?xml version="1.0" encoding="utf-8"?>
<!-- Svg Vector Icons : http://www.onlinewebfonts.com/icon -->
<!DOCTYPE svg PUBLIC "-//W3C//DTD SVG 1.1//EN" "http://www.w3.org/Graphics/SVG/1.1/DTD/svg11.dtd">
<svg version="1.1" xmlns="http://www.w3.org/2000/svg" xmlns:xlink="http://www.w3.org/1999/xlink" x="0px" y="0px" viewBox="0 0 1000 1000" enable-background="new 0 0 1000 1000" xml:space="preserve">
<metadata> Svg Vector Icons : http://www.onlinewebfonts.com/icon </metadata>
<g><g><g id="Briefcase"><g><path d="M867.5,193.8H683.8v-61.3C683.8,64.8,628.9,10,561.3,10H438.8c-67.7,0-122.5,54.8-122.5,122.5v61.3H132.5C64.8,193.8,10,248.6,10,316.3v551.3C10,935.2,64.8,990,132.5,990h735c67.7,0,122.5-54.8,122.5-122.5V316.3C990,248.6,935.2,193.8,867.5,193.8z M438.8,163.1c0-16.9,13.7-30.6,30.6-30.6h61.3c16.9,0,30.6,13.7,30.6,30.6v30.6H438.8V163.1z M867.5,806.3c0,33.8-27.4,61.3-61.3,61.3H193.8c-33.8,0-61.3-27.4-61.3-61.3V622.5h245c0,33.8,27.4,61.3,61.3,61.3h122.5c33.8,0,61.3-27.4,61.3-61.3h245V806.3z M867.5,561.3h-245c0-33.8-27.4-61.3-61.3-61.3H438.8c-33.8,0-61.3,27.4-61.3,61.3h-245V377.5c0-33.8,27.4-61.3,61.3-61.3h612.5c33.8,0,61.3,27.4,61.3,61.3V561.3z"/></g></g></g><g></g><g></g><g></g><g></g><g></g><g></g><g></g><g></g><g></g><g></g><g></g><g></g><g></g><g></g><g></g></g>
</svg>